<?xml version="1.0" encoding="UTF-8" standalone="no"?>
<!DOCTYPE svg PUBLIC "-//W3C//DTD SVG 1.1//EN" "http://www.w3.org/Graphics/SVG/1.1/DTD/svg11.dtd">
<svg width="100%" height="100%" viewBox="0 0 444 500" version="1.1" xmlns="http://www.w3.org/2000/svg" xmlns:xlink="http://www.w3.org/1999/xlink" xml:space="preserve" xmlns:serif="http://www.serif.com/" style="fill-rule:evenodd;clip-rule:evenodd;stroke-linejoin:round;stroke-miterlimit:2;">
    <path d="M-0.035,-2.15L444.1,-2.15L444.1,413.75C299.234,530.85 143.9,523.904 -0.035,413.75L-0.035,-2.15Z" style="stroke:rgb(0,21,55);stroke-width:1px;"/>
    <g transform="matrix(1,0,0,1,-6.14332,-18)">
        <g transform="matrix(289.991,0,0,289.991,96.323,338.531)">
            <path d="M0.443,0.122L0.296,-0L0.024,-0L0.024,-0.608L0.122,-0.706L0.453,-0.706L0.453,0.122L0.443,0.122ZM0.173,-0.572L0.173,-0.134L0.305,-0.134L0.305,-0.572L0.173,-0.572Z" style="fill:white;fill-rule:nonzero;"/>
        </g>
        <g transform="matrix(290,0,0,290,227,373.93)">
            <path d="M0.172,-0L0.024,-0L0.024,-0.606L0.131,-0.706L0.434,-0.706L0.434,-0.179L0.172,-0.179L0.172,-0ZM0.286,-0.314L0.286,-0.572L0.172,-0.572L0.172,-0.314L0.286,-0.314Z" style="fill:white;fill-rule:nonzero;"/>
        </g>
    </g>
</svg>
